<svg width="130" height="31" viewBox="0 0 130 31" fill="none" xmlns="http://www.w3.org/2000/svg">
<path d="M8.22076 11.78C8.20732 11.6794 8.18716 11.5798 8.16042 11.4819C8.13191 11.3811 8.09508 11.2829 8.05034 11.1883C7.96279 11.2187 7.87333 11.2432 7.78255 11.2615C7.693 11.2798 7.60187 11.289 7.51052 11.2888C7.38766 11.2957 7.26551 11.2659 7.15937 11.203C7.06954 11.138 7.00437 11.0439 6.97467 10.9364H7.72221C7.73834 10.8762 7.74539 10.8139 7.74312 10.7516C7.74476 10.688 7.73772 10.6245 7.72221 10.5628H6.91645C6.91369 10.5384 6.91237 10.5139 6.91248 10.4893V10.269H7.72222C7.73833 10.2089 7.74537 10.1467 7.74312 10.0845C7.74478 10.0209 7.73774 9.95736 7.72222 9.8957H6.96647C6.99473 9.77863 7.05681 9.67271 7.14482 9.5914C7.24122 9.51751 7.36064 9.48099 7.48141 9.48845C7.56496 9.48803 7.64834 9.49573 7.73042 9.51145C7.82636 9.53222 7.92078 9.55956 8.01304 9.59327C8.05667 9.5086 8.0928 9.4202 8.12101 9.32909C8.15452 9.22295 8.1741 9.11282 8.17922 9.00153C8.10698 8.97372 8.03915 8.95001 7.97573 8.9304C7.91428 8.91142 7.85182 8.89598 7.78864 8.88414C7.72888 8.87301 7.66853 8.86533 7.6079 8.86114C7.54836 8.85686 7.48538 8.85472 7.41896 8.85472C7.25938 8.85176 7.10054 8.87738 6.94979 8.93039C6.81932 8.97748 6.69935 9.05018 6.59679 9.14431C6.49589 9.23808 6.41284 9.34973 6.35176 9.47374C6.28589 9.60725 6.23835 9.7492 6.21045 9.89569H5.84925C5.83359 9.95732 5.82656 10.0209 5.82834 10.0845C5.82596 10.1467 5.83301 10.2089 5.84925 10.269H6.1607V10.4874C6.16071 10.5126 6.16203 10.5378 6.16467 10.5628H5.84924C5.83361 10.6245 5.82657 10.688 5.82834 10.7516C5.82594 10.8139 5.83299 10.8762 5.84924 10.9364H6.21045C6.23827 11.0772 6.2851 11.2135 6.34964 11.3415C6.4098 11.4606 6.49231 11.5668 6.59256 11.6541C6.69684 11.7434 6.81751 11.8111 6.94767 11.8533C7.10288 11.9022 7.26487 11.9256 7.42743 11.9225C7.55389 11.923 7.6802 11.9139 7.80531 11.8953C7.94721 11.8708 8.08638 11.8322 8.22076 11.78Z" fill="#1C9AEA"/>
<path d="M19.8994 9.83567C19.8914 9.87002 19.8854 9.90485 19.8817 9.93995C19.8766 9.98469 19.8741 10.0297 19.8743 10.0747C19.871 10.1535 19.8795 10.2324 19.8994 10.3087H20.6544V11.0767C20.7358 11.0928 20.8182 11.1039 20.901 11.1098C20.978 11.1149 21.0452 11.1173 21.1021 11.1173C21.1627 11.1173 21.2296 11.1149 21.3035 11.1098C21.3846 11.1036 21.4653 11.0926 21.5451 11.0767V10.3087H22.3805C22.4002 10.2324 22.4087 10.1535 22.4056 10.0747C22.4058 10.0297 22.4033 9.9847 22.3982 9.93996C22.3943 9.90488 22.3884 9.87006 22.3805 9.83568H21.5451V9.52042H22.3805C22.4003 9.44411 22.4087 9.36527 22.4056 9.28645C22.4058 9.24142 22.4033 9.19642 22.3982 9.15168C22.3943 9.11668 22.3884 9.08195 22.3805 9.04767H21.7515L22.5718 7.49143C22.4993 7.47956 22.4261 7.47188 22.3527 7.46843C22.2638 7.46335 22.191 7.46094 22.1339 7.46094C22.0465 7.46094 21.9645 7.46254 21.8872 7.46602C21.8096 7.46946 21.7323 7.47794 21.6557 7.49142L21.1222 8.7118L20.5636 7.49142C20.5133 7.48474 20.4456 7.47779 20.3598 7.4711C20.2744 7.46441 20.1964 7.46103 20.1259 7.46094C20.0386 7.46094 19.9473 7.46441 19.8515 7.4711C19.756 7.47778 19.6845 7.48473 19.6377 7.49142L20.448 9.04766H19.8994C19.8913 9.08192 19.8854 9.11666 19.8817 9.15168C19.8766 9.19641 19.8741 9.24141 19.8743 9.28644C19.871 9.36526 19.8795 9.44413 19.8994 9.52041H20.6544V9.83567H19.8994Z" fill="#1C9AEA"/>
<path d="M14.079 3.01465H12.0269V3.48928H12.3635C12.6651 3.48928 12.8334 3.58794 12.9043 3.74009H12.0269V4.0583H12.9221C12.8689 4.2551 12.6783 4.38506 12.3015 4.38506H12.0269V4.84658C12.3814 5.22709 12.736 5.65251 12.9885 5.96617H13.7154C13.3743 5.5362 13.0152 5.10623 12.7093 4.78829C12.9146 4.78963 13.1136 4.71681 13.2705 4.58297C13.4274 4.44912 13.5317 4.26305 13.5648 4.0583H14.079V3.74009H13.5691C13.5487 3.58854 13.4839 3.44662 13.383 3.33258H14.079V3.01465Z" fill="#1C9AEA"/>
<path d="M13.0004 1.28384e-06H12.9811C11.9455 0.00345396 10.9413 0.359706 10.1308 1.01117C9.32032 1.66264 8.75094 2.57125 8.51469 3.59014C8.27844 4.60903 8.38912 5.67865 8.82884 6.62612C9.26856 7.57359 10.0116 8.34353 10.9379 8.81149C11.4611 8.52985 12.0194 8.3206 12.5978 8.18936C11.7057 8.08587 10.8864 7.64193 10.3074 6.94831C9.72848 6.25469 9.4336 5.36379 9.48309 4.45778C9.53258 3.55176 9.9227 2.69907 10.5737 2.07405C11.2247 1.44903 12.0873 1.0989 12.9853 1.09525H13.0004C13.835 1.09451 14.6428 1.39338 15.2796 1.93856C15.9164 2.48374 16.3409 3.23977 16.4773 4.07182C16.6137 4.90387 16.4531 5.75783 16.0243 6.48139C15.5955 7.20494 14.9263 7.75105 14.136 8.02231C14.7299 8.02651 15.3206 8.11029 15.8926 8.27147C16.6342 7.66735 17.1719 6.84562 17.4318 5.91962C17.6916 4.99361 17.6608 4.00895 17.3434 3.10142C17.0261 2.19389 16.438 1.4082 15.6601 0.852711C14.8822 0.297219 13.9529 -0.000713694 13.0004 1.28384e-06Z" fill="#1C9AEA"/>
<path d="M14.1714 17.1829C14.2304 17.1885 14.2802 17.1912 14.3207 17.1912C14.3611 17.1912 14.4119 17.1885 14.4728 17.1829C14.532 17.1776 14.5905 17.1654 14.6469 17.1465V16.4871C14.9221 16.4195 15.1666 16.2601 15.341 16.0347C15.5042 15.8098 15.5888 15.5366 15.5816 15.2579C15.5859 15.0945 15.5606 14.9316 15.5069 14.7774C15.4621 14.655 15.3934 14.5429 15.305 14.4477C15.2196 14.358 15.1207 14.2825 15.0118 14.2241C14.8974 14.1627 14.7792 14.1085 14.658 14.0621L14.3484 13.9447C14.2611 13.9119 14.1784 13.8678 14.1024 13.8134C14.0647 13.7859 14.0345 13.7492 14.0147 13.7067C13.9949 13.6641 13.9861 13.6173 13.9891 13.5704C13.9866 13.5203 13.999 13.4707 14.0248 13.4278C14.0488 13.3924 14.0812 13.3637 14.119 13.3441C14.1586 13.3233 14.2017 13.3099 14.246 13.3048C14.2929 13.2994 14.3399 13.2966 14.3871 13.2966C14.5456 13.2924 14.7038 13.3112 14.857 13.3524C14.9832 13.3915 15.1069 13.4382 15.2275 13.4923C15.3448 13.2418 15.4214 12.9738 15.4543 12.6987C15.3069 12.6465 15.1677 12.6037 15.0367 12.5703C14.9086 12.5372 14.7783 12.5129 14.6469 12.4976V12.0115C14.5905 11.9925 14.5321 11.9803 14.4728 11.9751C14.412 11.9695 14.3612 11.9667 14.3207 11.9668C14.2802 11.9668 14.2304 11.9695 14.1714 11.9751C14.1113 11.9809 14.052 11.9931 13.9944 12.0115V12.5144C13.7168 12.5534 13.4606 12.6863 13.2675 12.8915C13.0842 13.1098 12.9903 13.3906 13.0047 13.6765C13.0017 13.8143 13.0232 13.9515 13.0682 14.0816C13.1075 14.1899 13.1655 14.2902 13.2397 14.3779C13.3134 14.4631 13.4003 14.5357 13.4969 14.5929C13.5985 14.6536 13.7037 14.7077 13.8121 14.7549L14.105 14.8779C14.2169 14.9228 14.3235 14.9799 14.4231 15.0483C14.4653 15.0777 14.4994 15.1176 14.5221 15.164C14.5448 15.2105 14.5555 15.262 14.553 15.3138C14.5566 15.371 14.5445 15.428 14.5182 15.4788C14.4919 15.5295 14.4523 15.5719 14.4038 15.6015C14.2726 15.6704 14.1255 15.7023 13.978 15.6938C13.8417 15.6929 13.7061 15.675 13.5742 15.6405C13.4135 15.5981 13.2564 15.543 13.1042 15.4758C13.0526 15.6323 13.0093 15.7794 12.9743 15.9173C12.9398 16.0512 12.9149 16.1875 12.8997 16.3251C12.9992 16.3663 13.0913 16.4016 13.1762 16.4312C13.2602 16.4609 13.3461 16.4852 13.4331 16.504C13.5208 16.5227 13.6094 16.5367 13.6985 16.5459C13.789 16.555 13.8875 16.5599 13.9944 16.5599V17.1465C14.052 17.1649 14.1113 17.1771 14.1714 17.1829Z" fill="#1C9AEA"/>
<path d="M18.4177 16.1031L19.6138 15.7075C19.6668 15.3927 19.6936 15.0739 19.6939 14.7546C19.6878 13.2551 19.0942 11.8191 18.0428 10.7609C16.9914 9.70273 15.5679 9.10854 14.084 9.1084H14.0602C12.9504 9.11302 11.867 9.45005 10.9469 10.0769C10.0267 10.7037 9.31117 11.5922 8.89072 12.6299C8.47027 13.6677 8.3638 14.8081 8.58478 15.907C8.80575 17.0059 9.34424 18.014 10.1322 18.8036C10.4156 19.0864 10.7278 19.338 11.0636 19.5545C11.2783 19.2505 11.5275 18.9731 11.8062 18.7278C11.4745 18.5337 11.1685 18.2979 10.8953 18.0261C10.2595 17.389 9.825 16.5756 9.64668 15.689C9.46836 14.8023 9.55425 13.8821 9.89351 13.0448C10.2328 12.2075 10.8101 11.4906 11.5526 10.9849C12.2951 10.4792 13.1693 10.2073 14.0647 10.2036H14.084C15.2812 10.2037 16.4297 10.6831 17.278 11.5369C18.1262 12.3906 18.6052 13.5492 18.61 14.759C18.6122 15.2141 18.5474 15.6672 18.4177 16.1031Z" fill="#1C9AEA"/>
<path d="M32.6622 13.6807H31.279C30.7447 13.6813 30.2325 13.8961 29.8547 14.2779C29.4769 14.6596 29.2643 15.1772 29.2637 15.7171V16.2153L27.3148 15.1666L27.3119 15.1654C27.2785 15.1476 27.2434 15.1334 27.2071 15.123C26.4622 14.9107 26.0263 14.823 25.5606 14.8984C25.5328 14.9029 25.5053 14.9097 25.4786 14.9187L14.3987 18.5828C13.0846 18.8748 11.7422 19.9269 11.4809 21.2792L4.51944 15.4409C4.23449 15.2019 3.90499 15.023 3.55043 14.9148C3.19587 14.8066 2.82344 14.7714 2.45518 14.8112C2.08692 14.851 1.73029 14.9651 1.4064 15.1466C1.08251 15.3281 0.797923 15.5734 0.569476 15.868C0.127176 16.4643 -0.0691543 17.2107 0.021739 17.9503C0.112632 18.6899 0.483673 19.365 1.0569 19.834L13.8486 30.1856C14.0991 30.3956 14.396 30.5414 14.7142 30.6108C15.0324 30.6801 15.3624 30.671 15.6763 30.584C15.6885 30.5806 15.7007 30.5768 15.7126 30.5725L27.2656 26.4707L27.4116 26.4231C27.9864 26.2351 28.5286 26.0586 28.9223 26.2932L29.2637 26.4781V27.1769C29.2644 27.7168 29.4769 28.2344 29.8547 28.6162C30.2325 28.9979 30.7447 29.2127 31.279 29.2134H32.6622C33.1965 29.2127 33.7087 28.9979 34.0865 28.6162C34.4643 28.2344 34.6769 27.7168 34.6775 27.1769V15.7171C34.6769 15.1772 34.4643 14.6596 34.0865 14.2779C33.7087 13.8961 33.1965 13.6813 32.6622 13.6807ZM29.2637 25.2416C28.5221 24.9114 27.7269 25.1691 27.0782 25.3811L15.373 29.5321C15.2278 29.5693 15.0759 29.5709 14.9298 29.537C14.7838 29.503 14.6479 29.4343 14.5334 29.3366L1.74173 18.985C1.38681 18.6989 1.15522 18.2851 1.09548 17.8303C1.03574 17.3755 1.1525 16.915 1.42128 16.5453C1.56022 16.3656 1.73344 16.2159 1.93067 16.1051C2.1279 15.9944 2.34514 15.9247 2.5695 15.9003C2.79386 15.8759 3.02079 15.8973 3.23682 15.9632C3.45286 16.029 3.65362 16.138 3.82719 16.2838L11.6308 22.8282C11.8052 23.2982 12.0913 23.7177 12.4638 24.0497C12.7913 24.3397 13.1762 24.5559 13.5928 24.6837C14.0095 24.8115 14.4483 24.8481 14.8801 24.7909C14.909 24.787 14.9375 24.7808 14.9655 24.7725L21.8517 22.6855C21.9889 22.6433 22.104 22.548 22.1718 22.4203C22.2396 22.2926 22.2545 22.143 22.2134 22.0042C22.1722 21.8654 22.0783 21.7487 21.9522 21.6798C21.8261 21.6108 21.678 21.5951 21.5405 21.6362L14.6988 23.7099C14.4261 23.7402 14.1502 23.713 13.8885 23.6297C13.6268 23.5465 13.3851 23.4091 13.1788 23.2264C12.9708 23.0423 12.804 22.8154 12.6896 22.5609C12.5753 22.3064 12.516 22.0302 12.5157 21.7507C12.5157 20.8581 13.4943 19.8952 14.6528 19.6479C14.6718 19.6436 14.6906 19.6385 14.7091 19.6324L25.771 15.9744C25.911 15.9609 26.0523 15.9687 26.1901 15.9976L26.1991 15.9993C26.24 16.0067 26.2834 16.0154 26.3302 16.0256C26.3407 16.0279 26.3526 16.0308 26.3635 16.0333C26.4037 16.0423 26.4451 16.0519 26.49 16.0631C26.5115 16.0684 26.5355 16.0748 26.5582 16.0806C26.5953 16.0901 26.6322 16.0996 26.6725 16.1105C26.7079 16.12 26.7465 16.1308 26.7846 16.1414C26.8087 16.148 26.8325 16.1546 26.8578 16.1618L29.2637 17.4564L29.2637 25.2416ZM33.5937 27.1769C33.5934 27.4264 33.4952 27.6657 33.3205 27.8421C33.1459 28.0186 32.9091 28.1178 32.6622 28.1181H31.279C31.0321 28.1178 30.7953 28.0186 30.6207 27.8421C30.4461 27.6657 30.3478 27.4264 30.3476 27.1769V15.7171C30.3478 15.4676 30.4461 15.2284 30.6207 15.0519C30.7953 14.8754 31.0321 14.7762 31.279 14.7759H32.6622C32.9091 14.7762 33.1459 14.8754 33.3205 15.0519C33.4952 15.2284 33.5934 15.4676 33.5937 15.7171V27.1769Z" fill="#1C9AEA"/>
<path d="M31.9581 27.0981C32.3529 27.0981 32.673 26.7747 32.673 26.3757C32.673 25.9768 32.3529 25.6533 31.9581 25.6533C31.5632 25.6533 31.2432 25.9768 31.2432 26.3757C31.2432 26.7747 31.5632 27.0981 31.9581 27.0981Z" fill="#1C9AEA"/>
<path d="M7.02533 7.09623H7.0391C7.33522 7.09676 7.62987 7.13829 7.91484 7.21965C7.72631 6.83956 7.58066 6.43926 7.48063 6.02629C7.33397 6.0103 7.18661 6.00185 7.0391 6.00098H7.02058C5.86879 6.00583 4.76594 6.47219 3.95401 7.29772C3.14209 8.12325 2.6874 9.24053 2.68971 10.4044C2.69202 11.5683 3.15114 12.6837 3.96633 13.5059C4.78153 14.3282 5.88621 14.7901 7.03801 14.7903H7.05654C7.16905 14.7898 7.27945 14.7808 7.38981 14.7718C7.39028 14.3997 7.42078 14.0283 7.481 13.6613C7.33882 13.6821 7.19544 13.6933 7.05179 13.695H7.03801C6.17313 13.695 5.34357 13.3483 4.7314 12.7309C4.11924 12.1135 3.77448 11.276 3.7728 10.402C3.77111 9.52805 4.11264 8.68912 4.72243 8.06935C5.33222 7.44957 6.16045 7.09961 7.02533 7.09623Z" fill="#1C9AEA"/>
<path d="M17.3609 8.89254C17.3892 8.63947 17.4424 8.38987 17.5197 8.14746L17.0404 8.71088C17.0368 8.71459 17.0327 8.7177 17.0291 8.72139C17.1404 8.77696 17.2525 8.83084 17.3609 8.89254Z" fill="#1C9AEA"/>
<path d="M21.128 14.2391H21.1483C22.4403 14.2339 23.6774 13.7111 24.5882 12.7852C25.499 11.8594 26.0091 10.6062 26.0066 9.30073C26.004 7.99526 25.489 6.74413 24.5746 5.82194C23.6601 4.89974 22.421 4.38182 21.1291 4.38184H21.1087C20.2514 4.38488 19.4102 4.61779 18.6711 5.05678C18.6326 5.64432 18.5045 6.22232 18.2913 6.77032C18.3384 6.71667 18.3846 6.66244 18.435 6.6111C18.785 6.25257 19.2019 5.96774 19.6615 5.77308C20.1212 5.57843 20.6145 5.47783 21.1129 5.47709H21.1291C22.1338 5.47725 23.0974 5.88015 23.8085 6.59739C24.5195 7.31462 24.92 8.28761 24.922 9.30286C24.924 10.3181 24.5274 11.2927 23.8191 12.0128C23.1109 12.7329 22.1488 13.1396 21.1441 13.1438H21.128C20.9406 13.1424 20.7537 13.1271 20.5686 13.098C20.6611 13.4664 20.7228 13.8419 20.753 14.2207C20.8774 14.2302 21.0019 14.2391 21.128 14.2391Z" fill="#1C9AEA"/>
<path d="M37.9121 1.24316V29.1333" stroke="black" stroke-width="1.54434"/>
<path d="M49.3028 13.2556H43.5848C43.4233 13.2556 43.3869 13.2004 43.3869 13.0346V8.37483C43.3869 8.2117 43.4416 8.17487 43.6212 8.17487H48.2691C48.5763 8.17487 48.8315 7.91701 48.8315 7.60654V7.5697C48.8315 7.2566 48.5763 7.00138 48.2691 7.00138H43.5848C43.4233 7.00138 43.3869 6.94612 43.3869 6.76194V2.43371C43.3869 2.28636 43.4416 2.23374 43.6212 2.23374H48.9591C49.2663 2.23374 49.5215 1.97589 49.5215 1.66278V1.62858C49.5215 1.31547 49.2663 1.05762 48.9591 1.05762H42.7698C42.4599 1.05762 42.2256 1.31547 42.2256 1.62858V13.8766C42.2256 14.1897 42.4599 14.4475 42.7698 14.4475H49.3028C49.61 14.4475 49.8652 14.1897 49.8652 13.8766V13.8239C49.8652 13.5108 49.61 13.2556 49.3028 13.2556Z" fill="#225378"/>
<path d="M50.9355 10.0847C50.9355 12.6501 53.0238 14.6866 55.5652 14.6866C56.8541 14.6866 58.0336 14.1551 58.8121 13.221C58.8486 13.1658 58.9762 13.1289 58.9762 13.3473C58.9762 13.4762 58.9762 13.8972 58.9762 13.8972C58.9762 14.2103 59.2313 14.4682 59.5386 14.4682H59.5751C59.8849 14.4682 60.1375 14.2103 60.1375 13.8972V6.2327C60.1375 5.92223 59.8849 5.66438 59.5751 5.66438H59.5386C59.2313 5.66438 58.9762 5.92223 58.9762 6.2327C58.9762 6.45372 58.9762 6.74578 58.9762 6.76419C58.9762 7.00363 58.7939 6.94837 58.7392 6.85628C58.0336 5.95643 56.7811 5.44336 55.5287 5.44336C52.9874 5.44336 50.9355 7.5167 50.9355 10.0847ZM52.0969 10.0847C52.0969 8.17712 53.6227 6.54318 55.5287 6.54318C57.4165 6.54318 58.9579 8.17712 58.9579 10.0847C58.9579 11.9923 57.4529 13.5868 55.5652 13.5868C53.6592 13.5868 52.0969 11.9923 52.0969 10.0847Z" fill="#225378"/>
<path d="M67.251 10.8703C66.8161 9.80735 64.6211 8.87329 64.1654 8.63386C64.004 8.54177 63.478 8.24971 63.478 7.68138C63.478 6.96571 64.1133 6.5421 64.5846 6.5421C65.1471 6.5421 65.2747 6.70786 65.4543 6.87362C65.7095 7.09464 66.0896 7.62613 66.5089 7.29461C66.7614 7.11306 66.7979 6.79995 66.6703 6.56052C66.3995 6.06586 65.6001 5.64488 64.9283 5.47911C64.7122 5.42386 64.2748 5.42386 63.9128 5.51595C63.6212 5.60804 63.3504 5.70013 63.1135 5.88431C62.551 6.32371 62.262 6.98413 62.262 7.68138C62.262 8.61544 62.7151 9.12851 63.1499 9.47846C63.7306 9.91786 64.4024 9.97311 65.1471 10.4493C65.9803 10.9993 66.3266 11.4045 66.2719 12.0622C66.2172 12.7779 65.5454 13.5857 64.7278 13.5857C63.8764 13.5857 63.3686 13.1831 62.9859 12.649C62.8244 12.4306 62.551 11.7333 61.9522 12.0438C61.4626 12.3017 61.6814 12.8332 61.6996 12.87C62.3141 13.9698 63.2411 14.6855 64.7278 14.6855C66.9984 14.6855 67.8863 12.449 67.251 10.8703Z" fill="#225378"/>
<path d="M77.034 9.12959C76.9064 8.21395 76.5262 7.42461 75.8909 6.78261C74.9848 5.86697 73.912 5.44336 72.6413 5.44336C71.3733 5.44336 70.3005 5.86697 69.3944 6.78261C68.5038 7.68246 68.0508 8.76386 68.0508 10.0479C68.0508 11.3319 68.5038 12.4133 69.3944 13.3289C70.3005 14.2288 71.3733 14.6866 72.6413 14.6866C73.912 14.6866 74.9848 14.2288 75.8909 13.3105C75.9638 13.2394 76.0367 13.1658 76.1096 13.0737C76.3804 12.779 76.3622 12.358 76.0367 12.137C75.6175 11.8818 75.3649 12.0633 74.9483 12.579C74.5291 13.0921 73.5683 13.5868 72.6413 13.5868C71.6987 13.5868 70.8994 13.1289 70.2458 12.4685C69.6469 11.8818 69.3214 11.1293 69.2485 10.211C69.2303 9.93735 69.285 9.86368 69.5402 9.86368H76.4898C76.9975 9.86368 77.0704 9.40586 77.034 9.12959ZM75.4378 8.69019H69.8474C69.5584 8.69019 69.4673 8.67177 69.5922 8.43234C69.7381 8.19554 69.9386 7.91927 70.2276 7.62721C70.8994 6.94837 71.6987 6.54318 72.6413 6.54318C73.5683 6.54318 74.3677 6.94837 75.0368 7.62721C75.292 7.86401 75.4743 8.10345 75.6019 8.34288C75.7086 8.52443 75.818 8.69019 75.4378 8.69019Z" fill="#225378"/>
<path d="M82.4785 5.67871C82.2441 5.67871 81.9343 5.82605 81.8249 6.04444L80.7183 8.42826C80.4996 8.88871 80.4996 8.88871 80.2835 8.42826L79.1404 6.04444C79.0492 5.84447 78.7394 5.67871 78.505 5.67871H77.9608C77.7239 5.67871 77.6328 5.84447 77.7421 6.04444L79.6846 9.34653C79.9007 9.74909 79.9189 9.69384 79.6663 10.099L77.2891 14.0773C77.1615 14.2983 77.2526 14.4641 77.4869 14.4641H78.0337C78.2681 14.4641 78.5779 14.2799 78.6847 14.0773L80.2835 10.8673C80.5178 10.3911 80.4813 10.3911 80.7183 10.8673L82.2962 14.0773C82.4056 14.2983 82.7154 14.4641 82.9498 14.4641H83.4784C83.7127 14.4641 83.8221 14.2799 83.6945 14.0773L81.2807 10.1359C81.0464 9.74909 81.0464 9.80435 81.2807 9.38336L83.2232 6.04444C83.3508 5.84447 83.2596 5.67871 83.0227 5.67871H82.4785Z" fill="#225378"/>
<path d="M89.4308 5.44336C88.1784 5.44336 86.9259 5.95643 86.2177 6.85628C86.1448 6.94837 85.9807 7.00363 85.9807 6.76419C85.9807 6.74578 85.9807 6.47214 85.9807 6.2327C85.9807 5.92223 85.7282 5.66438 85.4183 5.66438H85.3818C85.0746 5.66438 84.8376 5.92223 84.8376 6.2327V16.4652C84.8376 16.7783 85.0746 17.0151 85.3818 17.0151H85.4183C85.7282 17.0151 85.9807 16.7783 85.9807 16.4652C85.9807 16.4652 85.9807 13.4578 85.9807 13.3289C85.9807 13.1289 86.1083 13.1658 86.1448 13.221C86.9259 14.1551 88.1055 14.6866 89.3943 14.6866C91.9357 14.6866 94.0214 12.6501 94.0214 10.0847C94.0214 7.5167 91.9695 5.44336 89.4308 5.44336ZM89.3943 13.5867C87.5066 13.5867 85.999 11.9923 85.999 10.0847C85.999 8.17712 87.543 6.54318 89.4308 6.54318C91.3186 6.54318 92.86 8.17712 92.86 10.0847C92.86 11.9923 91.3004 13.5867 89.3943 13.5867Z" fill="#225378"/>
<path d="M104.166 9.12959C104.041 8.21396 103.658 7.42461 103.022 6.78261C102.116 5.86697 101.044 5.44336 99.7755 5.44336C98.5049 5.44336 97.4321 5.86697 96.5259 6.78261C95.6354 7.68246 95.1824 8.76386 95.1824 10.0479C95.1824 11.3319 95.6354 12.4133 96.5259 13.3289C97.4321 14.2288 98.5049 14.6866 99.7755 14.6866C101.044 14.6866 102.116 14.2288 103.022 13.3105C103.095 13.2394 103.168 13.1658 103.241 13.0737C103.512 12.779 103.494 12.358 103.168 12.137C102.752 11.8818 102.497 12.0633 102.08 12.579C101.661 13.0921 100.7 13.5868 99.7755 13.5868C98.8303 13.5868 98.031 13.1289 97.38 12.4685C96.7811 11.8818 96.453 11.1293 96.3801 10.211C96.3619 9.93736 96.4166 9.86368 96.6718 9.86368H103.621C104.129 9.86368 104.202 9.40586 104.166 9.12959ZM102.569 8.69019H96.979C96.69 8.69019 96.5989 8.67177 96.7264 8.43234C96.8697 8.19554 97.0701 7.91927 97.3618 7.62721C98.031 6.94837 98.8303 6.54318 99.7755 6.54318C100.7 6.54318 101.499 6.94837 102.171 7.62721C102.424 7.86401 102.606 8.10345 102.733 8.34288C102.84 8.52443 102.95 8.69019 102.569 8.69019Z" fill="#225378"/>
<path d="M109.267 5.44336C108.558 5.44336 107.561 5.62754 106.944 6.32479C106.889 6.38005 106.798 6.36163 106.798 6.26954C106.798 6.2327 106.798 6.26954 106.798 6.21428C106.798 5.86697 106.525 5.66438 106.254 5.66438H106.181C105.871 5.66438 105.619 5.90381 105.619 6.21428L105.637 13.8788C105.637 14.1919 105.889 14.4498 106.199 14.4498H106.254C106.561 14.4498 106.816 14.1919 106.816 13.8788C106.816 13.8788 106.816 9.0375 106.816 8.81912C106.816 7.29568 107.616 6.54318 109.267 6.54318C110.519 6.54318 111.881 7.33252 111.881 9.14801V13.8788C111.881 14.1919 112.133 14.4498 112.443 14.4498H112.48C112.787 14.4498 113.042 14.1919 113.042 13.8788V9.07434C113.042 6.2327 110.917 5.44336 109.267 5.44336Z" fill="#225378"/>
<path d="M120.156 10.8703C119.721 9.80735 117.523 8.87329 117.07 8.63386C116.906 8.54177 116.38 8.24971 116.38 7.68138C116.38 6.96571 117.016 6.5421 117.487 6.5421C118.049 6.5421 118.177 6.70786 118.359 6.87362C118.612 7.09464 118.995 7.62613 119.411 7.29461C119.666 7.11306 119.703 6.79995 119.575 6.56052C119.302 6.06586 118.505 5.64488 117.833 5.47911C117.615 5.42386 117.18 5.42386 116.815 5.51595C116.526 5.60804 116.253 5.70013 116.018 5.88431C115.456 6.32371 115.164 6.98413 115.164 7.68138C115.164 8.61544 115.617 9.12851 116.055 9.47846C116.635 9.91786 117.307 9.97311 118.049 10.4493C118.885 10.9993 119.229 11.4045 119.174 12.0622C119.122 12.7779 118.45 13.5857 117.633 13.5857C116.779 13.5857 116.271 13.1831 115.891 12.649C115.727 12.4306 115.456 11.7333 114.857 12.0438C114.365 12.3017 114.584 12.8332 114.602 12.87C115.219 13.9698 116.146 14.6855 117.633 14.6855C119.901 14.6855 120.791 12.449 120.156 10.8703Z" fill="#225378"/>
<path d="M129.939 9.12959C129.811 8.21396 129.431 7.42461 128.795 6.78261C127.887 5.86697 126.817 5.44336 125.546 5.44336C124.275 5.44336 123.205 5.86697 122.296 6.78261C121.408 7.68246 120.955 8.76386 120.955 10.0479C120.955 11.3319 121.408 12.4133 122.296 13.3289C123.205 14.2288 124.275 14.6866 125.546 14.6866C126.817 14.6866 127.887 14.2288 128.795 13.3105C128.866 13.2394 128.939 13.1658 129.012 13.0737C129.285 12.779 129.267 12.358 128.939 12.137C128.522 11.8818 128.267 12.0633 127.85 12.579C127.434 13.0921 126.47 13.5868 125.546 13.5868C124.603 13.5868 123.804 13.1289 123.15 12.4685C122.551 11.8818 122.223 11.1293 122.153 10.211C122.135 9.93736 122.19 9.86368 122.442 9.86368H129.394C129.902 9.86368 129.975 9.40586 129.939 9.12959ZM128.34 8.69019H122.752C122.46 8.69019 122.369 8.67177 122.497 8.43234C122.643 8.19554 122.84 7.91927 123.132 7.62721C123.804 6.94837 124.603 6.54318 125.546 6.54318C126.47 6.54318 127.27 6.94837 127.941 7.62721C128.197 7.86401 128.376 8.10345 128.504 8.34288C128.613 8.52443 128.723 8.69019 128.34 8.69019Z" fill="#225378"/>
<path d="M45.8264 28.3243C45.6259 28.3243 45.9072 27.5745 45.9072 27.1324C45.9072 26.5615 45.6572 26.1957 45.2223 25.9432C45.1078 25.8774 45.1156 25.8353 45.2041 25.7721C45.6077 25.4853 45.8837 25.0775 45.8837 24.5223C45.8837 23.4541 44.9307 22.8516 43.8397 22.8516H42.4441C42.3061 22.8516 42.1941 22.9647 42.1941 23.1778C42.1941 23.1778 42.1941 28.5611 42.1941 28.6269C42.1941 28.6901 42.3061 28.8058 42.4441 28.8058H42.4675C42.6055 28.8058 42.7201 28.7085 42.7201 28.6269C42.7201 28.5533 42.7201 26.2931 42.7201 26.2931C42.7201 26.2194 42.7435 26.2036 42.8164 26.2036H44.0741C45.0114 26.2036 45.3734 26.472 45.3734 27.1324C45.3734 27.6955 45.1885 28.3401 45.415 28.6427C45.5036 28.7637 45.6806 28.8532 45.8264 28.8532C46.3186 28.8532 46.2717 28.3243 45.8264 28.3243ZM43.8397 25.6721H42.8086C42.7357 25.6721 42.7201 25.6485 42.7201 25.5748V23.462C42.7201 23.3988 42.7435 23.3725 42.8164 23.3725H43.8397C44.6391 23.3725 45.3656 23.7409 45.3656 24.5223C45.3656 25.2906 44.6651 25.6721 43.8397 25.6721Z" fill="#225378"/>
<path d="M50.5319 26.4312C50.4772 26.0234 50.3079 25.6734 50.0241 25.3866C49.6205 24.9788 49.144 24.792 48.579 24.792C48.014 24.792 47.5375 24.9788 47.1339 25.3866C46.7381 25.7866 46.5376 26.2681 46.5376 26.839C46.5376 27.41 46.7381 27.8915 47.1339 28.2993C47.5375 28.6992 48.014 28.9018 48.579 28.9018C49.144 28.9018 49.6205 28.6992 50.0241 28.2914C50.0554 28.2572 50.0892 28.2256 50.1205 28.1835C50.2429 28.0546 50.235 27.8652 50.0892 27.7678C49.9044 27.6547 49.7898 27.7362 49.6049 27.9652C49.42 28.1914 48.9904 28.4124 48.579 28.4124C48.1598 28.4124 47.8057 28.2098 47.514 27.9152C47.2484 27.6547 47.1026 27.3205 47.0688 26.9127C47.061 26.789 47.087 26.7575 47.199 26.7575H50.2897C50.5163 26.7575 50.5501 26.5522 50.5319 26.4312ZM49.8236 26.2339H47.337C47.2068 26.2339 47.1677 26.226 47.2224 26.1207C47.2875 26.0155 47.376 25.8918 47.5062 25.7629C47.8057 25.4603 48.1598 25.2814 48.579 25.2814C48.9904 25.2814 49.3471 25.4603 49.644 25.7629C49.7585 25.8681 49.8393 25.9734 49.8939 26.0813C49.9434 26.1628 49.9929 26.2339 49.8236 26.2339Z" fill="#225378"/>
<path d="M54.8826 23.0963C54.8826 22.9647 54.7707 22.8516 54.6405 22.8516H54.6092C54.4712 22.8516 54.3592 22.9647 54.3592 23.0963C54.3592 23.0963 54.3592 25.1196 54.3592 25.438C54.3592 25.5011 54.2942 25.5011 54.2707 25.4617C53.8827 24.9881 53.4219 24.8012 52.8803 24.8012C52.3257 24.8012 51.8413 24.9881 51.4456 25.3959C51.042 25.7958 50.8467 26.2773 50.8467 26.8483C50.8467 27.4192 51.042 27.9007 51.4456 28.3086C51.8413 28.7085 52.3257 28.9111 52.8803 28.9111C53.4219 28.9111 53.9296 28.6506 54.302 28.2191C54.3436 28.1691 54.3592 28.227 54.3592 28.2507C54.3592 28.3165 54.3592 28.5611 54.3592 28.5611C54.3592 28.7006 54.4712 28.8058 54.6092 28.8058H54.6405C54.7707 28.8058 54.8826 28.7006 54.8826 28.5611V23.0963ZM54.3983 26.8483C54.3983 27.6955 53.7213 28.4217 52.8803 28.4217C52.0418 28.4217 51.3648 27.6955 51.3648 26.8483C51.3648 25.9984 52.0418 25.2906 52.8803 25.2906C53.7213 25.2906 54.3983 25.9984 54.3983 26.8483Z" fill="#225378"/>
<path d="M58.4756 24.9033H58.46C58.322 24.9033 58.2074 25.0165 58.2074 25.1559V27.2529C58.2074 28.0607 57.684 28.4264 57.119 28.4264C56.5618 28.4264 56.028 28.0607 56.028 27.2529V25.1559C56.028 25.0165 55.916 24.9033 55.778 24.9033H55.7546C55.6166 24.9033 55.5046 25.0165 55.5046 25.1559V27.2845C55.5046 28.5501 56.3847 28.9158 57.119 28.9158C57.8533 28.9158 58.7256 28.5501 58.7256 27.2845V25.1559C58.7256 25.0165 58.611 24.9033 58.4756 24.9033Z" fill="#225378"/>
<path d="M62.4856 27.7362C62.2122 28.1283 61.7695 28.4124 61.2592 28.4124C60.4207 28.4124 59.7411 27.6863 59.7411 26.839C59.7411 25.9892 60.4207 25.2814 61.2592 25.2814C61.7357 25.2814 62.1549 25.5261 62.4387 25.876C62.5663 26.0392 62.6158 25.9813 62.6158 25.8602C62.6158 25.8024 62.6158 25.5498 62.6158 25.4103C62.6158 25.3287 62.5845 25.2814 62.5507 25.2472C62.1966 24.9551 61.7435 24.792 61.2592 24.792C60.1291 24.792 59.2256 25.705 59.2256 26.839C59.2256 27.973 60.1291 28.9018 61.2592 28.9018C61.7435 28.9018 62.1966 28.7229 62.5429 28.4361C62.5923 28.3967 62.6158 28.3467 62.6158 28.2651C62.6158 28.1204 62.6158 27.8573 62.6158 27.7599C62.6158 27.6205 62.5351 27.6705 62.4856 27.7362Z" fill="#225378"/>
<path d="M66.9018 26.4312C66.8445 26.0234 66.6752 25.6734 66.394 25.3866C65.9904 24.9788 65.5139 24.792 64.9489 24.792C64.3838 24.792 63.9073 24.9788 63.5037 25.3866C63.108 25.7866 62.9075 26.2681 62.9075 26.839C62.9075 27.41 63.108 27.8915 63.5037 28.2993C63.9073 28.6992 64.3838 28.9018 64.9489 28.9018C65.5139 28.9018 65.9904 28.6992 66.394 28.2914C66.4252 28.2572 66.4591 28.2256 66.4903 28.1835C66.6127 28.0546 66.6023 27.8652 66.4591 27.7678C66.2716 27.6547 66.1597 27.7362 65.9748 27.9652C65.7873 28.1914 65.3603 28.4124 64.9489 28.4124C64.5297 28.4124 64.1729 28.2098 63.8839 27.9152C63.6157 27.6547 63.4725 27.3205 63.4387 26.9127C63.4308 26.789 63.4543 26.7575 63.5688 26.7575H66.6596C66.8861 26.7575 66.9174 26.5522 66.9018 26.4312ZM66.1909 26.2339H63.7068C63.5767 26.2339 63.535 26.226 63.5923 26.1207C63.6574 26.0155 63.7459 25.8918 63.8761 25.7629C64.1729 25.4603 64.5297 25.2814 64.9489 25.2814C65.3603 25.2814 65.7144 25.4603 66.0138 25.7629C66.1284 25.8681 66.2091 25.9734 66.2638 26.0813C66.3133 26.1628 66.3602 26.2339 66.1909 26.2339Z" fill="#225378"/>
<path d="M74.0552 22.9158L74.0396 22.8974C73.925 22.8158 73.7714 22.85 73.6906 22.9632C73.6906 22.9632 72.3601 24.955 72.2794 25.0681C72.1179 25.297 72.1492 25.3286 71.9643 25.0602C71.8758 24.9286 70.5582 22.9632 70.5582 22.9632C70.4775 22.85 70.3265 22.8158 70.2119 22.8974L70.1885 22.9158C70.0739 22.9895 70.0505 23.1526 70.1312 23.2658C70.1312 23.2658 71.6258 25.4522 71.7221 25.5891C71.8185 25.7364 71.868 25.8759 71.868 26.0627C71.868 26.2521 71.868 28.5517 71.868 28.5517C71.868 28.6886 71.9799 28.8043 72.1179 28.8043H72.1335C72.2715 28.8043 72.3835 28.6886 72.3835 28.5517C72.3835 28.5517 72.3835 26.26 72.3835 26.0706C72.3835 25.8916 72.4408 25.7206 72.5371 25.5733C72.6335 25.4365 74.1203 23.2658 74.1203 23.2658C74.201 23.1526 74.1671 22.9895 74.0552 22.9158Z" fill="#225378"/>
<path d="M75.7082 24.792C74.5859 24.792 73.6746 25.7129 73.6746 26.8469C73.6746 27.9809 74.5859 28.9018 75.7082 28.9018C76.8382 28.9018 77.7522 27.9809 77.7522 26.8469C77.7522 25.7129 76.8382 24.792 75.7082 24.792ZM75.7082 28.4124C74.8775 28.4124 74.1901 27.6941 74.1901 26.8469C74.1901 25.9997 74.8775 25.2814 75.7082 25.2814C76.5492 25.2814 77.2262 25.9997 77.2262 26.8469C77.2262 27.6941 76.5492 28.4124 75.7082 28.4124Z" fill="#225378"/>
<path d="M81.1966 24.9033H81.1809C81.0429 24.9033 80.931 25.0165 80.931 25.1559V27.2529C80.931 28.0607 80.405 28.4264 79.84 28.4264C79.2853 28.4264 78.7516 28.0607 78.7516 27.2529V25.1559C78.7516 25.0165 78.6396 24.9033 78.5016 24.9033H78.4782C78.3402 24.9033 78.2256 25.0165 78.2256 25.1559V27.2845C78.2256 28.5501 79.1057 28.9158 79.84 28.9158C80.5768 28.9158 81.4465 28.5501 81.4465 27.2845V25.1559C81.4465 25.0165 81.3346 24.9033 81.1966 24.9033Z" fill="#225378"/>
<path d="M83.6342 25.0665C83.6264 25.0586 83.6186 25.0507 83.6186 25.0428C83.5379 24.9033 83.3114 24.8796 83.1916 24.9428C83.038 25.0244 82.788 25.2875 82.6656 25.4322C82.6422 25.4664 82.5953 25.4822 82.5953 25.4085C82.5953 25.3427 82.5953 25.1559 82.5953 25.1559C82.5953 25.0165 82.4729 24.9033 82.3349 24.9033H82.3193C82.1813 24.9033 82.0693 25.0165 82.0693 25.1559V28.5659C82.0693 28.7053 82.1813 28.8106 82.3193 28.8106H82.3349C82.4729 28.8106 82.5849 28.7053 82.5849 28.5659L82.5953 26.8609C82.5953 25.9874 82.9729 25.8242 83.5639 25.4085C83.6837 25.3269 83.6759 25.148 83.6342 25.0665Z" fill="#225378"/>
<path d="M88.3002 25.359C87.5581 25.3906 87.3003 24.7881 87.3003 24.2987C87.3003 23.7172 87.7039 23.2462 88.3158 23.2462C88.7116 23.2462 88.9381 23.4567 89.2141 23.7909C89.4146 24.0356 89.8339 23.8093 89.6568 23.4909C89.3912 23.0173 88.9069 22.7568 88.3158 22.7568C87.4279 22.7568 86.816 23.4488 86.816 24.2987C86.816 25.2433 87.5008 25.8879 88.3002 25.8563C89.0345 25.8142 89.5683 26.401 89.5683 27.1035C89.5683 27.877 89.084 28.4243 88.3158 28.4243C87.8081 28.4243 87.5008 28.1323 87.2509 27.7639C86.9853 27.3877 86.5244 27.6981 86.7509 28.0744C87.066 28.5953 87.631 28.9137 88.3158 28.9137C89.3495 28.9137 90.0604 28.1481 90.0604 27.1035C90.0604 25.88 89.0032 25.3327 88.3002 25.359Z" fill="#225378"/>
<path d="M90.4148 26.8548C90.4148 27.9967 91.3444 28.9018 92.4744 28.9018C93.0473 28.9018 93.5732 28.665 93.9195 28.2493C93.9352 28.2256 93.9925 28.2098 93.9925 28.3072C93.9925 28.3651 93.9925 28.5519 93.9925 28.5519C93.9925 28.6913 94.1044 28.8045 94.2424 28.8045H94.258C94.396 28.8045 94.508 28.6913 94.508 28.5519V25.1419C94.508 25.0025 94.396 24.8893 94.258 24.8893H94.2424C94.1044 24.8893 93.9925 25.0025 93.9925 25.1419C93.9925 25.2393 93.9925 25.3708 93.9925 25.3787C93.9925 25.484 93.9117 25.4603 93.8857 25.4182C93.5732 25.0209 93.016 24.792 92.4588 24.792C91.3287 24.792 90.4148 25.7129 90.4148 26.8548ZM90.933 26.8548C90.933 26.0076 91.61 25.2814 92.4588 25.2814C93.2972 25.2814 93.9846 26.0076 93.9846 26.8548C93.9846 27.702 93.3129 28.4124 92.4744 28.4124C91.6256 28.4124 90.933 27.702 90.933 26.8548Z" fill="#225378"/>
<path d="M94.9841 26.8548C94.9841 27.9967 95.9137 28.9018 97.0438 28.9018C97.6166 28.9018 98.14 28.665 98.4863 28.2493C98.5045 28.2256 98.5592 28.2098 98.5592 28.3072C98.5592 28.3651 98.5592 28.5519 98.5592 28.5519C98.5592 28.6913 98.6738 28.8045 98.8092 28.8045H98.8274C98.9628 28.8045 99.0773 28.6913 99.0773 28.5519V25.1419C99.0773 25.0025 98.9628 24.8893 98.8274 24.8893H98.8092C98.6738 24.8893 98.5592 25.0025 98.5592 25.1419C98.5592 25.2393 98.5592 25.3708 98.5592 25.3787C98.5592 25.484 98.4785 25.4603 98.455 25.4182C98.14 25.0209 97.5828 24.792 97.0255 24.792C95.8955 24.792 94.9841 25.7129 94.9841 26.8548ZM95.4997 26.8548C95.4997 26.0076 96.1793 25.2814 97.0255 25.2814C97.8666 25.2814 98.5514 26.0076 98.5514 26.8548C98.5514 27.702 97.8822 28.4124 97.0438 28.4124C96.1949 28.4124 95.4997 27.702 95.4997 26.8548Z" fill="#225378"/>
<path d="M101.191 25.359C100.449 25.3906 100.191 24.7881 100.191 24.2987C100.191 23.7172 100.595 23.2462 101.207 23.2462C101.603 23.2462 101.829 23.4567 102.103 23.7909C102.306 24.0356 102.725 23.8093 102.548 23.4909C102.28 23.0173 101.795 22.7568 101.207 22.7568C100.319 22.7568 99.7071 23.4488 99.7071 24.2987C99.7071 25.2433 100.392 25.8879 101.191 25.8563C101.926 25.8142 102.459 26.401 102.459 27.1035C102.459 27.877 101.975 28.4243 101.207 28.4243C100.699 28.4243 100.392 28.1323 100.142 27.7639C99.8764 27.3877 99.4155 27.6981 99.642 28.0744C99.9571 28.5953 100.522 28.9137 101.207 28.9137C102.241 28.9137 102.952 28.1481 102.952 27.1035C102.952 25.88 101.894 25.3327 101.191 25.359Z" fill="#225378"/>
<path d="M107.988 25.359C107.246 25.3906 106.988 24.7881 106.988 24.2987C106.988 23.7172 107.391 23.2462 108.003 23.2462C108.399 23.2462 108.626 23.4567 108.899 23.7909C109.102 24.0356 109.521 23.8093 109.344 23.4909C109.079 23.0173 108.594 22.7568 108.003 22.7568C107.115 22.7568 106.504 23.4488 106.504 24.2987C106.504 25.2433 107.188 25.8879 107.988 25.8563C108.722 25.8142 109.256 26.401 109.256 27.1035C109.256 27.877 108.771 28.4243 108.003 28.4243C107.496 28.4243 107.188 28.1323 106.938 27.7639C106.673 27.3877 106.212 27.6981 106.438 28.0744C106.753 28.5953 107.319 28.9137 108.003 28.9137C109.037 28.9137 109.748 28.1481 109.748 27.1035C109.748 25.88 108.691 25.3327 107.988 25.359Z" fill="#225378"/>
<path d="M112.289 24.792C111.735 24.792 111.178 25.0209 110.863 25.4182C110.829 25.4603 110.756 25.484 110.756 25.3787C110.756 25.3708 110.756 25.2472 110.756 25.1419C110.756 25.0025 110.644 24.8893 110.506 24.8893H110.49C110.352 24.8893 110.248 25.0025 110.248 25.1419V29.6938C110.248 29.8333 110.352 29.9385 110.49 29.9385H110.506C110.644 29.9385 110.756 29.8333 110.756 29.6938C110.756 29.6938 110.756 28.3546 110.756 28.2993C110.756 28.2098 110.813 28.2256 110.829 28.2493C111.178 28.665 111.701 28.9018 112.274 28.9018C113.404 28.9018 114.333 27.9967 114.333 26.8548C114.333 25.7129 113.42 24.792 112.289 24.792ZM112.274 28.4124C111.435 28.4124 110.766 27.702 110.766 26.8548C110.766 26.0076 111.451 25.2814 112.289 25.2814C113.13 25.2814 113.815 26.0076 113.815 26.8548C113.815 27.702 113.123 28.4124 112.274 28.4124Z" fill="#225378"/>
<path d="M118.658 26.4312C118.604 26.0234 118.434 25.6734 118.151 25.3866C117.747 24.9788 117.27 24.792 116.705 24.792C116.14 24.792 115.664 24.9788 115.26 25.3866C114.865 25.7866 114.664 26.2681 114.664 26.839C114.664 27.41 114.865 27.8915 115.26 28.2993C115.664 28.6992 116.14 28.9018 116.705 28.9018C117.27 28.9018 117.747 28.6992 118.151 28.2914C118.182 28.2572 118.216 28.2256 118.247 28.1835C118.369 28.0546 118.362 27.8652 118.216 27.7678C118.031 27.6547 117.916 27.7362 117.731 27.9652C117.547 28.1914 117.117 28.4124 116.705 28.4124C116.286 28.4124 115.932 28.2098 115.641 27.9152C115.375 27.6547 115.229 27.3205 115.195 26.9127C115.187 26.789 115.213 26.7575 115.325 26.7575H118.416C118.643 26.7575 118.677 26.5522 118.658 26.4312ZM117.95 26.2339H115.463C115.333 26.2339 115.294 26.226 115.349 26.1207C115.414 26.0155 115.502 25.8918 115.633 25.7629C115.932 25.4603 116.286 25.2814 116.705 25.2814C117.117 25.2814 117.474 25.4603 117.77 25.7629C117.885 25.8681 117.966 25.9734 118.02 26.0813C118.07 26.1628 118.119 26.2339 117.95 26.2339Z" fill="#225378"/>
<path d="M120.741 24.792C120.426 24.792 119.984 24.8736 119.708 25.184C119.684 25.2077 119.645 25.1998 119.645 25.1577C119.645 25.1419 119.645 25.1577 119.645 25.134C119.645 24.9788 119.523 24.8893 119.403 24.8893H119.369C119.231 24.8893 119.119 24.9946 119.119 25.134L119.127 28.544C119.127 28.6808 119.242 28.7966 119.377 28.7966H119.403C119.538 28.7966 119.653 28.6808 119.653 28.544C119.653 28.544 119.653 26.3891 119.653 26.2917C119.653 25.6155 120.007 25.2814 120.741 25.2814C121.299 25.2814 121.905 25.6313 121.905 26.4391V28.544C121.905 28.6808 122.017 28.7966 122.155 28.7966H122.171C122.309 28.7966 122.421 28.6808 122.421 28.544V26.4075C122.421 25.1419 121.476 24.792 120.741 24.792Z" fill="#225378"/>
<path d="M126.933 23.0963C126.933 22.9647 126.819 22.8516 126.691 22.8516H126.657C126.522 22.8516 126.407 22.9647 126.407 23.0963C126.407 23.0963 126.407 25.1196 126.407 25.438C126.407 25.5011 126.345 25.5011 126.319 25.4617C125.931 24.9881 125.472 24.8012 124.931 24.8012C124.374 24.8012 123.889 24.9881 123.493 25.3959C123.09 25.7958 122.897 26.2773 122.897 26.8483C122.897 27.4192 123.09 27.9007 123.493 28.3086C123.889 28.7085 124.374 28.9111 124.931 28.9111C125.472 28.9111 125.98 28.6506 126.353 28.2191C126.392 28.1691 126.407 28.227 126.407 28.2507C126.407 28.3165 126.407 28.5611 126.407 28.5611C126.407 28.7006 126.522 28.8058 126.657 28.8058H126.691C126.819 28.8058 126.933 28.7006 126.933 28.5611V23.0963ZM126.449 26.8483C126.449 27.6955 125.769 28.4217 124.931 28.4217C124.092 28.4217 123.413 27.6955 123.413 26.8483C123.413 25.9984 124.092 25.2906 124.931 25.2906C125.769 25.2906 126.449 25.9984 126.449 26.8483Z" fill="#225378"/>
<path d="M129.912 27.2051C129.716 26.7342 128.74 26.3158 128.539 26.2106C128.467 26.1711 128.232 26.0395 128.232 25.7869C128.232 25.4686 128.513 25.2818 128.724 25.2818C128.974 25.2818 129.032 25.3554 129.112 25.4291C129.224 25.5265 129.394 25.7633 129.581 25.6159C129.693 25.5343 129.709 25.3949 129.654 25.2897C129.532 25.0686 129.177 24.8818 128.878 24.8082C128.782 24.7845 128.586 24.7845 128.425 24.8239C128.297 24.866 128.175 24.9055 128.071 24.9871C127.821 25.1844 127.691 25.4765 127.691 25.7869C127.691 26.2027 127.894 26.4316 128.086 26.5868C128.344 26.7815 128.644 26.8052 128.974 27.0183C129.347 27.263 129.5 27.4419 129.474 27.7366C129.451 28.055 129.151 28.4128 128.789 28.4128C128.409 28.4128 128.183 28.2339 128.013 27.9971C127.941 27.8997 127.821 27.5893 127.555 27.7287C127.336 27.8419 127.433 28.0787 127.441 28.0945C127.717 28.5838 128.128 28.9022 128.789 28.9022C129.797 28.9022 130.193 27.9076 129.912 27.2051Z" fill="#225378"/>
</svg>
